ISO-10303-21;
HEADER;
/* Generated by software containing ST-Developer
 * from STEP Tools, Inc. (www.steptools.com) 
 */
/* OPTION: using custom renumber hook */

FILE_DESCRIPTION(
/* description */ ('STEP AP242 Edition 2',
'CAx-IF Rec.Pracs.---Representation and Presentation of Product Manufa
cturing Information (PMI)---4.0---2014-10-13',
'CAx-IF Rec.Pracs.---3D Tessellated Geometry---0.4---2014-09-14','2;1',
'CAx-IF Rec.Pracs.---User Defined Attributes---1.5---2016-08-15'),
/* implementation_level */ '2;1');

FILE_NAME(
/* name */ '6956b41bde4a915c1ab862a8',
/* time_stamp */ '2026-01-01T17:51:24Z',
/* author */ (''),
/* organization */ (''),
/* preprocessor_version */ 'ST-DEVELOPER v20',
/* originating_system */ 'ONSHAPE BY PTC INC, 1.208',
/* authorisation */ '  ');

FILE_SCHEMA (('AP242_MANAGED_MODEL_BASED_3D_ENGINEERING_MIM_LF { 1 0 10303 442 3 1 4 }'));
ENDSEC;

DATA;
#10=SHAPE_REPRESENTATION_RELATIONSHIP('','',#338,#11);
#11=ADVANCED_BREP_SHAPE_REPRESENTATION('',(#336),#567);
#12=CONICAL_SURFACE('',#367,0.000599999999999971,0.785398163397452);
#13=CONICAL_SURFACE('',#368,0.000599999999999906,0.785398163397457);
#14=CONICAL_SURFACE('',#371,0.000599999999999991,0.785398163397463);
#15=CONICAL_SURFACE('',#372,0.0006,0.785398163397456);
#16=CONICAL_SURFACE('',#374,0.00155,0.785398163397452);
#17=CIRCLE('',#344,0.00099999999999991);
#18=CIRCLE('',#345,0.00099999999999991);
#19=CIRCLE('',#348,0.000999999999999972);
#20=CIRCLE('',#349,0.000999999999999972);
#21=CIRCLE('',#351,0.0006);
#22=CIRCLE('',#352,0.0006);
#23=CIRCLE('',#353,0.000599999999999906);
#24=CIRCLE('',#354,0.000599999999999971);
#25=CIRCLE('',#355,0.00155);
#26=CIRCLE('',#357,0.00235);
#27=CIRCLE('',#358,0.001);
#28=CIRCLE('',#359,0.001);
#29=CIRCLE('',#361,0.00155);
#30=CIRCLE('',#363,0.001);
#31=CIRCLE('',#365,0.001);
#32=CYLINDRICAL_SURFACE('',#343,0.00099999999999991);
#33=CYLINDRICAL_SURFACE('',#347,0.000999999999999972);
#34=CYLINDRICAL_SURFACE('',#360,0.00155);
#35=CYLINDRICAL_SURFACE('',#362,0.001);
#36=CYLINDRICAL_SURFACE('',#364,0.001);
#37=ORIENTED_EDGE('',*,*,#123,.T.);
#38=ORIENTED_EDGE('',*,*,#124,.T.);
#39=ORIENTED_EDGE('',*,*,#125,.T.);
#40=ORIENTED_EDGE('',*,*,#126,.T.);
#41=ORIENTED_EDGE('',*,*,#127,.T.);
#42=ORIENTED_EDGE('',*,*,#128,.T.);
#43=ORIENTED_EDGE('',*,*,#129,.T.);
#44=ORIENTED_EDGE('',*,*,#130,.T.);
#45=ORIENTED_EDGE('',*,*,#131,.F.);
#46=ORIENTED_EDGE('',*,*,#132,.T.);
#47=ORIENTED_EDGE('',*,*,#133,.T.);
#48=ORIENTED_EDGE('',*,*,#134,.T.);
#49=ORIENTED_EDGE('',*,*,#135,.F.);
#50=ORIENTED_EDGE('',*,*,#136,.T.);
#51=ORIENTED_EDGE('',*,*,#131,.T.);
#52=ORIENTED_EDGE('',*,*,#137,.T.);
#53=ORIENTED_EDGE('',*,*,#138,.F.);
#54=ORIENTED_EDGE('',*,*,#139,.T.);
#55=ORIENTED_EDGE('',*,*,#135,.T.);
#56=ORIENTED_EDGE('',*,*,#140,.F.);
#57=ORIENTED_EDGE('',*,*,#125,.F.);
#58=ORIENTED_EDGE('',*,*,#141,.T.);
#59=ORIENTED_EDGE('',*,*,#138,.T.);
#60=ORIENTED_EDGE('',*,*,#142,.T.);
#61=ORIENTED_EDGE('',*,*,#143,.T.);
#62=ORIENTED_EDGE('',*,*,#144,.T.);
#63=ORIENTED_EDGE('',*,*,#145,.T.);
#64=ORIENTED_EDGE('',*,*,#146,.T.);
#65=ORIENTED_EDGE('',*,*,#147,.T.);
#66=ORIENTED_EDGE('',*,*,#148,.T.);
#67=ORIENTED_EDGE('',*,*,#149,.T.);
#68=ORIENTED_EDGE('',*,*,#150,.T.);
#69=ORIENTED_EDGE('',*,*,#151,.T.);
#70=ORIENTED_EDGE('',*,*,#152,.T.);
#71=ORIENTED_EDGE('',*,*,#130,.F.);
#72=ORIENTED_EDGE('',*,*,#153,.T.);
#73=ORIENTED_EDGE('',*,*,#126,.F.);
#74=ORIENTED_EDGE('',*,*,#142,.F.);
#75=ORIENTED_EDGE('',*,*,#140,.T.);
#76=ORIENTED_EDGE('',*,*,#137,.F.);
#77=ORIENTED_EDGE('',*,*,#134,.F.);
#78=ORIENTED_EDGE('',*,*,#154,.T.);
#79=ORIENTED_EDGE('',*,*,#155,.T.);
#80=ORIENTED_EDGE('',*,*,#151,.F.);
#81=ORIENTED_EDGE('',*,*,#129,.F.);
#82=ORIENTED_EDGE('',*,*,#156,.T.);
#83=ORIENTED_EDGE('',*,*,#123,.F.);
#84=ORIENTED_EDGE('',*,*,#153,.F.);
#85=ORIENTED_EDGE('',*,*,#133,.F.);
#86=ORIENTED_EDGE('',*,*,#157,.T.);
#87=ORIENTED_EDGE('',*,*,#127,.F.);
#88=ORIENTED_EDGE('',*,*,#154,.F.);
#89=ORIENTED_EDGE('',*,*,#158,.F.);
#90=ORIENTED_EDGE('',*,*,#139,.F.);
#91=ORIENTED_EDGE('',*,*,#159,.F.);
#92=ORIENTED_EDGE('',*,*,#148,.F.);
#93=ORIENTED_EDGE('',*,*,#159,.T.);
#94=ORIENTED_EDGE('',*,*,#141,.F.);
#95=ORIENTED_EDGE('',*,*,#160,.F.);
#96=ORIENTED_EDGE('',*,*,#149,.F.);
#97=ORIENTED_EDGE('',*,*,#158,.T.);
#98=ORIENTED_EDGE('',*,*,#147,.F.);
#99=ORIENTED_EDGE('',*,*,#161,.F.);
#100=ORIENTED_EDGE('',*,*,#136,.F.);
#101=ORIENTED_EDGE('',*,*,#160,.T.);
#102=ORIENTED_EDGE('',*,*,#124,.F.);
#103=ORIENTED_EDGE('',*,*,#162,.F.);
#104=ORIENTED_EDGE('',*,*,#150,.F.);
#105=ORIENTED_EDGE('',*,*,#161,.T.);
#106=ORIENTED_EDGE('',*,*,#146,.F.);
#107=ORIENTED_EDGE('',*,*,#163,.F.);
#108=ORIENTED_EDGE('',*,*,#132,.F.);
#109=ORIENTED_EDGE('',*,*,#162,.T.);
#110=ORIENTED_EDGE('',*,*,#156,.F.);
#111=ORIENTED_EDGE('',*,*,#164,.F.);
#112=ORIENTED_EDGE('',*,*,#143,.F.);
#113=ORIENTED_EDGE('',*,*,#163,.T.);
#114=ORIENTED_EDGE('',*,*,#145,.F.);
#115=ORIENTED_EDGE('',*,*,#165,.F.);
#116=ORIENTED_EDGE('',*,*,#157,.F.);
#117=ORIENTED_EDGE('',*,*,#164,.T.);
#118=ORIENTED_EDGE('',*,*,#128,.F.);
#119=ORIENTED_EDGE('',*,*,#165,.T.);
#120=ORIENTED_EDGE('',*,*,#144,.F.);
#121=ORIENTED_EDGE('',*,*,#152,.F.);
#122=ORIENTED_EDGE('',*,*,#155,.F.);
#123=EDGE_CURVE('',#166,#167,#193,.F.);
#124=EDGE_CURVE('',#167,#168,#194,.T.);
#125=EDGE_CURVE('',#168,#169,#195,.T.);
#126=EDGE_CURVE('',#169,#166,#196,.T.);
#127=EDGE_CURVE('',#170,#171,#197,.F.);
#128=EDGE_CURVE('',#171,#172,#198,.T.);
#129=EDGE_CURVE('',#172,#173,#199,.T.);
#130=EDGE_CURVE('',#173,#170,#200,.T.);
#131=EDGE_CURVE('',#174,#175,#201,.T.);
#132=EDGE_CURVE('',#174,#176,#202,.T.);
#133=EDGE_CURVE('',#176,#177,#203,.T.);
#134=EDGE_CURVE('',#177,#175,#204,.T.);
#135=EDGE_CURVE('',#178,#179,#205,.T.);
#136=EDGE_CURVE('',#178,#174,#17,.F.);
#137=EDGE_CURVE('',#175,#179,#18,.T.);
#138=EDGE_CURVE('',#180,#181,#206,.T.);
#139=EDGE_CURVE('',#180,#178,#207,.T.);
#140=EDGE_CURVE('',#181,#179,#208,.T.);
#141=EDGE_CURVE('',#168,#180,#19,.F.);
#142=EDGE_CURVE('',#181,#169,#20,.T.);
#143=EDGE_CURVE('',#182,#183,#21,.T.);
#144=EDGE_CURVE('',#183,#184,#209,.T.);
#145=EDGE_CURVE('',#184,#185,#22,.T.);
#146=EDGE_CURVE('',#185,#186,#210,.T.);
#147=EDGE_CURVE('',#186,#187,#23,.T.);
#148=EDGE_CURVE('',#187,#188,#211,.T.);
#149=EDGE_CURVE('',#188,#189,#24,.T.);
#150=EDGE_CURVE('',#189,#182,#212,.T.);
#151=EDGE_CURVE('',#190,#190,#25,.T.);
#152=EDGE_CURVE('',#191,#191,#26,.T.);
#153=EDGE_CURVE('',#173,#166,#27,.F.);
#154=EDGE_CURVE('',#177,#170,#28,.F.);
#155=EDGE_CURVE('',#192,#192,#29,.F.);
#156=EDGE_CURVE('',#172,#167,#30,.F.);
#157=EDGE_CURVE('',#176,#171,#31,.F.);
#158=EDGE_CURVE('',#178,#187,#213,.T.);
#159=EDGE_CURVE('',#188,#180,#214,.T.);
#160=EDGE_CURVE('',#189,#168,#215,.T.);
#161=EDGE_CURVE('',#174,#186,#216,.T.);
#162=EDGE_CURVE('',#182,#167,#217,.T.);
#163=EDGE_CURVE('',#176,#185,#218,.T.);
#164=EDGE_CURVE('',#183,#172,#219,.T.);
#165=EDGE_CURVE('',#171,#184,#220,.T.);
#166=VERTEX_POINT('',#478);
#167=VERTEX_POINT('',#479);
#168=VERTEX_POINT('',#481);
#169=VERTEX_POINT('',#483);
#170=VERTEX_POINT('',#487);
#171=VERTEX_POINT('',#488);
#172=VERTEX_POINT('',#490);
#173=VERTEX_POINT('',#492);
#174=VERTEX_POINT('',#496);
#175=VERTEX_POINT('',#497);
#176=VERTEX_POINT('',#499);
#177=VERTEX_POINT('',#501);
#178=VERTEX_POINT('',#505);
#179=VERTEX_POINT('',#506);
#180=VERTEX_POINT('',#511);
#181=VERTEX_POINT('',#512);
#182=VERTEX_POINT('',#520);
#183=VERTEX_POINT('',#521);
#184=VERTEX_POINT('',#523);
#185=VERTEX_POINT('',#525);
#186=VERTEX_POINT('',#527);
#187=VERTEX_POINT('',#529);
#188=VERTEX_POINT('',#531);
#189=VERTEX_POINT('',#533);
#190=VERTEX_POINT('',#536);
#191=VERTEX_POINT('',#539);
#192=VERTEX_POINT('',#544);
#193=LINE('',#477,#221);
#194=LINE('',#480,#222);
#195=LINE('',#482,#223);
#196=LINE('',#484,#224);
#197=LINE('',#486,#225);
#198=LINE('',#489,#226);
#199=LINE('',#491,#227);
#200=LINE('',#493,#228);
#201=LINE('',#495,#229);
#202=LINE('',#498,#230);
#203=LINE('',#500,#231);
#204=LINE('',#502,#232);
#205=LINE('',#504,#233);
#206=LINE('',#510,#234);
#207=LINE('',#513,#235);
#208=LINE('',#514,#236);
#209=LINE('',#522,#237);
#210=LINE('',#526,#238);
#211=LINE('',#530,#239);
#212=LINE('',#534,#240);
#213=LINE('',#550,#241);
#214=LINE('',#551,#242);
#215=LINE('',#553,#243);
#216=LINE('',#555,#244);
#217=LINE('',#557,#245);
#218=LINE('',#559,#246);
#219=LINE('',#561,#247);
#220=LINE('',#563,#248);
#221=VECTOR('',#379,1.);
#222=VECTOR('',#380,1.);
#223=VECTOR('',#381,1.);
#224=VECTOR('',#382,1.);
#225=VECTOR('',#385,1.);
#226=VECTOR('',#386,1.);
#227=VECTOR('',#387,1.);
#228=VECTOR('',#388,1.);
#229=VECTOR('',#391,1.);
#230=VECTOR('',#392,1.);
#231=VECTOR('',#393,1.);
#232=VECTOR('',#394,1.);
#233=VECTOR('',#397,1.);
#234=VECTOR('',#404,1.);
#235=VECTOR('',#405,1.);
#236=VECTOR('',#406,1.);
#237=VECTOR('',#417,1.);
#238=VECTOR('',#420,1.);
#239=VECTOR('',#423,1.);
#240=VECTOR('',#426,1.);
#241=VECTOR('',#451,1.);
#242=VECTOR('',#452,1.);
#243=VECTOR('',#455,1.);
#244=VECTOR('',#458,1.);
#245=VECTOR('',#461,1.);
#246=VECTOR('',#464,1.);
#247=VECTOR('',#467,1.);
#248=VECTOR('',#470,1.);
#249=EDGE_LOOP('',(#37,#38,#39,#40));
#250=EDGE_LOOP('',(#41,#42,#43,#44));
#251=EDGE_LOOP('',(#45,#46,#47,#48));
#252=EDGE_LOOP('',(#49,#50,#51,#52));
#253=EDGE_LOOP('',(#53,#54,#55,#56));
#254=EDGE_LOOP('',(#57,#58,#59,#60));
#255=EDGE_LOOP('',(#61,#62,#63,#64,#65,#66,#67,#68));
#256=EDGE_LOOP('',(#69));
#257=EDGE_LOOP('',(#70));
#258=EDGE_LOOP('',(#71,#72,#73,#74,#75,#76,#77,#78));
#259=EDGE_LOOP('',(#79));
#260=EDGE_LOOP('',(#80));
#261=EDGE_LOOP('',(#81,#82,#83,#84));
#262=EDGE_LOOP('',(#85,#86,#87,#88));
#263=EDGE_LOOP('',(#89,#90,#91,#92));
#264=EDGE_LOOP('',(#93,#94,#95,#96));
#265=EDGE_LOOP('',(#97,#98,#99,#100));
#266=EDGE_LOOP('',(#101,#102,#103,#104));
#267=EDGE_LOOP('',(#105,#106,#107,#108));
#268=EDGE_LOOP('',(#109,#110,#111,#112));
#269=EDGE_LOOP('',(#113,#114,#115,#116));
#270=EDGE_LOOP('',(#117,#118,#119,#120));
#271=EDGE_LOOP('',(#121));
#272=EDGE_LOOP('',(#122));
#273=FACE_BOUND('',#249,.T.);
#274=FACE_BOUND('',#250,.T.);
#275=FACE_BOUND('',#251,.T.);
#276=FACE_BOUND('',#252,.T.);
#277=FACE_BOUND('',#253,.T.);
#278=FACE_BOUND('',#254,.T.);
#279=FACE_BOUND('',#255,.T.);
#280=FACE_BOUND('',#256,.T.);
#281=FACE_BOUND('',#257,.T.);
#282=FACE_BOUND('',#258,.T.);
#283=FACE_BOUND('',#259,.T.);
#284=FACE_BOUND('',#260,.T.);
#285=FACE_BOUND('',#261,.T.);
#286=FACE_BOUND('',#262,.T.);
#287=FACE_BOUND('',#263,.T.);
#288=FACE_BOUND('',#264,.T.);
#289=FACE_BOUND('',#265,.T.);
#290=FACE_BOUND('',#266,.T.);
#291=FACE_BOUND('',#267,.T.);
#292=FACE_BOUND('',#268,.T.);
#293=FACE_BOUND('',#269,.T.);
#294=FACE_BOUND('',#270,.T.);
#295=FACE_BOUND('',#271,.T.);
#296=FACE_BOUND('',#272,.T.);
#297=PLANE('',#340);
#298=PLANE('',#341);
#299=PLANE('',#342);
#300=PLANE('',#346);
#301=PLANE('',#350);
#302=PLANE('',#356);
#303=PLANE('',#366);
#304=PLANE('',#369);
#305=PLANE('',#370);
#306=PLANE('',#373);
#307=ADVANCED_FACE('',(#273),#297,.F.);
#308=ADVANCED_FACE('',(#274),#298,.F.);
#309=ADVANCED_FACE('',(#275),#299,.F.);
#310=ADVANCED_FACE('',(#276),#32,.T.);
#311=ADVANCED_FACE('',(#277),#300,.T.);
#312=ADVANCED_FACE('',(#278),#33,.T.);
#313=ADVANCED_FACE('',(#279,#280),#301,.T.);
#314=ADVANCED_FACE('',(#281,#282),#302,.F.);
#315=ADVANCED_FACE('',(#283,#284),#34,.F.);
#316=ADVANCED_FACE('',(#285),#35,.T.);
#317=ADVANCED_FACE('',(#286),#36,.T.);
#318=ADVANCED_FACE('',(#287),#303,.F.);
#319=ADVANCED_FACE('',(#288),#12,.T.);
#320=ADVANCED_FACE('',(#289),#13,.T.);
#321=ADVANCED_FACE('',(#290),#304,.T.);
#322=ADVANCED_FACE('',(#291),#305,.T.);
#323=ADVANCED_FACE('',(#292),#14,.T.);
#324=ADVANCED_FACE('',(#293),#15,.T.);
#325=ADVANCED_FACE('',(#294),#306,.T.);
#326=ADVANCED_FACE('',(#295,#296),#16,.F.);
#327=CLOSED_SHELL('',(#307,#308,#309,#310,#311,#312,#313,#314,#315,#316,
#317,#318,#319,#320,#321,#322,#323,#324,#325,#326));
#328=STYLED_ITEM('',(#329),#336);
#329=PRESENTATION_STYLE_ASSIGNMENT((#330));
#330=SURFACE_STYLE_USAGE(.BOTH.,#331);
#331=SURFACE_SIDE_STYLE('',(#332));
#332=SURFACE_STYLE_FILL_AREA(#333);
#333=FILL_AREA_STYLE('',(#334));
#334=FILL_AREA_STYLE_COLOUR('',#335);
#335=COLOUR_RGB('',0.980392156862745,0.713725490196078,0.00392156862745098);
#336=MANIFOLD_SOLID_BREP('Micron_tabless_sheet_alignment_post',#327);
#337=SHAPE_DEFINITION_REPRESENTATION(#572,#338);
#338=SHAPE_REPRESENTATION('Micron_tabless_sheet_alignment_post',(#339),
#567);
#339=AXIS2_PLACEMENT_3D('',#475,#375,#376);
#340=AXIS2_PLACEMENT_3D('',#476,#377,#378);
#341=AXIS2_PLACEMENT_3D('',#485,#383,#384);
#342=AXIS2_PLACEMENT_3D('',#494,#389,#390);
#343=AXIS2_PLACEMENT_3D('',#503,#395,#396);
#344=AXIS2_PLACEMENT_3D('',#507,#398,#399);
#345=AXIS2_PLACEMENT_3D('',#508,#400,#401);
#346=AXIS2_PLACEMENT_3D('',#509,#402,#403);
#347=AXIS2_PLACEMENT_3D('',#515,#407,#408);
#348=AXIS2_PLACEMENT_3D('',#516,#409,#410);
#349=AXIS2_PLACEMENT_3D('',#517,#411,#412);
#350=AXIS2_PLACEMENT_3D('',#518,#413,#414);
#351=AXIS2_PLACEMENT_3D('',#519,#415,#416);
#352=AXIS2_PLACEMENT_3D('',#524,#418,#419);
#353=AXIS2_PLACEMENT_3D('',#528,#421,#422);
#354=AXIS2_PLACEMENT_3D('',#532,#424,#425);
#355=AXIS2_PLACEMENT_3D('',#535,#427,#428);
#356=AXIS2_PLACEMENT_3D('',#537,#429,#430);
#357=AXIS2_PLACEMENT_3D('',#538,#431,#432);
#358=AXIS2_PLACEMENT_3D('',#540,#433,#434);
#359=AXIS2_PLACEMENT_3D('',#541,#435,#436);
#360=AXIS2_PLACEMENT_3D('',#542,#437,#438);
#361=AXIS2_PLACEMENT_3D('',#543,#439,#440);
#362=AXIS2_PLACEMENT_3D('',#545,#441,#442);
#363=AXIS2_PLACEMENT_3D('',#546,#443,#444);
#364=AXIS2_PLACEMENT_3D('',#547,#445,#446);
#365=AXIS2_PLACEMENT_3D('',#548,#447,#448);
#366=AXIS2_PLACEMENT_3D('',#549,#449,#450);
#367=AXIS2_PLACEMENT_3D('',#552,#453,#454);
#368=AXIS2_PLACEMENT_3D('',#554,#456,#457);
#369=AXIS2_PLACEMENT_3D('',#556,#459,#460);
#370=AXIS2_PLACEMENT_3D('',#558,#462,#463);
#371=AXIS2_PLACEMENT_3D('',#560,#465,#466);
#372=AXIS2_PLACEMENT_3D('',#562,#468,#469);
#373=AXIS2_PLACEMENT_3D('',#564,#471,#472);
#374=AXIS2_PLACEMENT_3D('',#565,#473,#474);
#375=DIRECTION('',(0.,0.,1.));
#376=DIRECTION('',(1.,0.,0.));
#377=DIRECTION('',(0.707106781186556,-0.70710678118654,-6.86934513776205E-16));
#378=DIRECTION('',(0.70710678118654,0.707106781186556,0.));
#379=DIRECTION('',(-6.97261119368397E-32,9.71472105844488E-16,-1.));
#380=DIRECTION('',(0.70710678118654,0.707106781186556,6.86934513776221E-16));
#381=DIRECTION('',(1.96592687935854E-45,9.71472105844488E-16,-1.));
#382=DIRECTION('',(-0.70710678118654,-0.707106781186556,-6.86934513776221E-16));
#383=DIRECTION('',(-3.8061443354766E-15,1.,9.71472105844488E-16));
#384=DIRECTION('',(-1.,-3.8061443354766E-15,0.));
#385=DIRECTION('',(0.,9.71472105844488E-16,-1.));
#386=DIRECTION('',(-1.,-3.8061443354766E-15,-3.69756305273352E-30));
#387=DIRECTION('',(-7.00649232162409E-46,9.71472105844488E-16,-1.));
#388=DIRECTION('',(1.,3.8061443354766E-15,3.69756305273352E-30));
#389=DIRECTION('',(-0.707106781186541,-0.707106781186555,-6.8693451377622E-16));
#390=DIRECTION('',(0.707106781186555,-0.707106781186541,0.));
#391=DIRECTION('',(1.96592687935854E-45,9.71472105844488E-16,-1.));
#392=DIRECTION('',(0.707106781186555,-0.707106781186541,-6.86934513776206E-16));
#393=DIRECTION('',(0.,9.71472105844488E-16,-1.));
#394=DIRECTION('',(-0.707106781186555,0.707106781186541,6.86934513776206E-16));
#395=DIRECTION('',(1.96592687935854E-45,9.71472105844488E-16,-1.));
#396=DIRECTION('',(0.,1.,9.71472105844488E-16));
#397=DIRECTION('',(1.96592687935854E-45,9.71472105844488E-16,-1.));
#398=DIRECTION('',(0.,0.,1.));
#399=DIRECTION('',(1.,0.,0.));
#400=DIRECTION('',(-1.96592687935854E-45,-9.71472105844488E-16,1.));
#401=DIRECTION('',(0.,-1.,-9.71472105844488E-16));
#402=DIRECTION('',(0.,1.,9.71472105844488E-16));
#403=DIRECTION('',(0.,-9.71472105844488E-16,1.));
#404=DIRECTION('',(1.96592687935854E-45,9.71472105844488E-16,-1.));
#405=DIRECTION('',(1.,-1.90984312542672E-60,1.96592687935854E-45));
#406=DIRECTION('',(1.,-1.90984312542672E-60,1.96592687935854E-45));
#407=DIRECTION('',(1.96592687935854E-45,9.71472105844488E-16,-1.));
#408=DIRECTION('',(0.,1.,9.71472105844488E-16));
#409=DIRECTION('',(0.,0.,1.));
#410=DIRECTION('',(1.,0.,0.));
#411=DIRECTION('',(-1.96592687935854E-45,-9.71472105844488E-16,1.));
#412=DIRECTION('',(0.,-1.,-9.71472105844488E-16));
#413=DIRECTION('',(-1.96592687935854E-45,-9.71472105844488E-16,1.));
#414=DIRECTION('',(1.,-1.90984312542672E-60,1.96592687935854E-45));
#415=DIRECTION('',(-1.96592687935854E-45,-9.71472105844488E-16,1.));
#416=DIRECTION('',(0.,-1.,-9.71472105844488E-16));
#417=DIRECTION('',(1.,3.8061443354766E-15,3.69756305273352E-30));
#418=DIRECTION('',(-1.96592687935854E-45,-9.71472105844488E-16,1.));
#419=DIRECTION('',(0.,-1.,-9.71472105844488E-16));
#420=DIRECTION('',(-0.707106781186555,0.707106781186541,6.86934513776206E-16));
#421=DIRECTION('',(-1.96592687935854E-45,-9.71472105844488E-16,1.));
#422=DIRECTION('',(0.,-1.,-9.71472105844488E-16));
#423=DIRECTION('',(-1.,1.90984312542672E-60,-1.96592687935854E-45));
#424=DIRECTION('',(-1.96592687935854E-45,-9.71472105844488E-16,1.));
#425=DIRECTION('',(0.,-1.,-9.71472105844488E-16));
#426=DIRECTION('',(-0.70710678118654,-0.707106781186556,-6.86934513776221E-16));
#427=DIRECTION('',(1.96592687935854E-45,9.71472105844488E-16,-1.));
#428=DIRECTION('',(0.,1.,9.71472105844488E-16));
#429=DIRECTION('',(-1.96592687935854E-45,-9.71472105844488E-16,1.));
#430=DIRECTION('',(1.,-1.90984312542672E-60,1.96592687935854E-45));
#431=DIRECTION('',(-1.96592687935854E-45,-9.71472105844488E-16,1.));
#432=DIRECTION('',(0.,-1.,-9.71472105844488E-16));
#433=DIRECTION('',(-1.96592687935854E-45,-9.71472105844488E-16,1.));
#434=DIRECTION('',(0.,-1.,-9.71472105844488E-16));
#435=DIRECTION('',(-1.96592687935854E-45,-9.71472105844488E-16,1.));
#436=DIRECTION('',(0.,-1.,-9.71472105844488E-16));
#437=DIRECTION('',(1.96592687935854E-45,9.71472105844488E-16,-1.));
#438=DIRECTION('',(0.,1.,9.71472105844488E-16));
#439=DIRECTION('',(0.,0.,1.));
#440=DIRECTION('',(1.,0.,0.));
#441=DIRECTION('',(-5.30775291966432E-46,9.71472105844488E-16,-1.));
#442=DIRECTION('',(0.,1.,9.71472105844488E-16));
#443=DIRECTION('',(0.,0.,1.));
#444=DIRECTION('',(1.,0.,0.));
#445=DIRECTION('',(0.,9.71472105844488E-16,-1.));
#446=DIRECTION('',(0.,1.,9.71472105844488E-16));
#447=DIRECTION('',(0.,0.,1.));
#448=DIRECTION('',(1.,0.,0.));
#449=DIRECTION('',(1.39012022771135E-45,-0.707106781186535,-0.70710678118656));
#450=DIRECTION('',(1.,-1.90984312542672E-60,1.96592687935854E-45));
#451=DIRECTION('',(3.67990420004006E-14,-0.70710678118656,0.707106781186535));
#452=DIRECTION('',(0.,0.70710678118656,-0.707106781186535));
#453=DIRECTION('',(0.,0.,-1.));
#454=DIRECTION('',(-1.,0.,0.));
#455=DIRECTION('',(-0.5,0.500000000000011,-0.707106781186541));
#456=DIRECTION('',(0.,0.,-1.));
#457=DIRECTION('',(-1.,0.,0.));
#458=DIRECTION('',(-0.5,-0.500000000000011,0.707106781186541));
#459=DIRECTION('',(-0.5,0.499999999999987,0.707106781186558));
#460=DIRECTION('',(0.70710678118654,0.707106781186556,6.86934513776221E-16));
#461=DIRECTION('',(-0.5,0.499999999999993,-0.707106781186549));
#462=DIRECTION('',(0.499999999999986,0.5,0.707106781186561));
#463=DIRECTION('',(0.707106781186555,-0.707106781186541,-6.86934513776206E-16));
#464=DIRECTION('',(-0.5,-0.500000000000011,0.707106781186541));
#465=DIRECTION('',(0.,0.,-1.));
#466=DIRECTION('',(-1.,0.,0.));
#467=DIRECTION('',(0.,-0.707106781186554,-0.707106781186541));
#468=DIRECTION('',(0.,0.,-1.));
#469=DIRECTION('',(-1.,0.,0.));
#470=DIRECTION('',(0.,0.707106781186554,0.707106781186541));
#471=DIRECTION('',(2.69135046979025E-15,-0.707106781186544,0.707106781186551));
#472=DIRECTION('',(-1.,-3.8061443354766E-15,-3.69756305273352E-30));
#473=DIRECTION('',(0.,0.,-1.));
#474=DIRECTION('',(-1.,0.,0.));
#475=CARTESIAN_POINT('',(0.,0.,0.));
#476=CARTESIAN_POINT('',(0.041160803390591,0.0634608033905944,-0.0867995404955798));
#477=CARTESIAN_POINT('',(0.0400571067811844,0.0623571067811879,-0.0867995404955798));
#478=CARTESIAN_POINT('',(0.0400571067811844,0.0623571067811879,-0.0889995404955798));
#479=CARTESIAN_POINT('',(0.0400571067811844,0.0623571067811879,-0.0871995404955798));
#480=CARTESIAN_POINT('',(0.0439716067811839,0.0662716067811875,-0.0871995404955798));
#481=CARTESIAN_POINT('',(0.0439716067811839,0.0662716067811875,-0.0871995404955798));
#482=CARTESIAN_POINT('',(0.0439716067811839,0.0662716067811875,-0.0867995404955798));
#483=CARTESIAN_POINT('',(0.0439716067811839,0.0662716067811875,-0.0889995404955798));
#484=CARTESIAN_POINT('',(0.041160803390591,0.0634608033905944,-0.0889995404955798));
#485=CARTESIAN_POINT('',(0.0501999999999978,0.0606500000000014,-0.0867995404955798));
#486=CARTESIAN_POINT('',(0.0596357864376245,0.0606500000000014,-0.0867995404955798));
#487=CARTESIAN_POINT('',(0.0596357864376245,0.0606500000000014,-0.0889995404955798));
#488=CARTESIAN_POINT('',(0.0596357864376245,0.0606500000000014,-0.0871995404955798));
#489=CARTESIAN_POINT('',(0.040764213562371,0.0606500000000014,-0.0871995404955798));
#490=CARTESIAN_POINT('',(0.040764213562371,0.0606500000000014,-0.0871995404955798));
#491=CARTESIAN_POINT('',(0.040764213562371,0.0606500000000014,-0.0867995404955798));
#492=CARTESIAN_POINT('',(0.040764213562371,0.0606500000000014,-0.0889995404955798));
#493=CARTESIAN_POINT('',(0.0501999999999978,0.0606500000000014,-0.0889995404955798));
#494=CARTESIAN_POINT('',(0.0592391966094045,0.0634608033905944,-0.0867995404955798));
#495=CARTESIAN_POINT('',(0.0564283932188115,0.0662716067811875,-0.0867995404955798));
#496=CARTESIAN_POINT('',(0.0564283932188115,0.0662716067811875,-0.0871995404955798));
#497=CARTESIAN_POINT('',(0.0564283932188115,0.0662716067811875,-0.0889995404955798));
#498=CARTESIAN_POINT('',(0.060342893218811,0.062357106781188,-0.0871995404955798));
#499=CARTESIAN_POINT('',(0.060342893218811,0.062357106781188,-0.0871995404955798));
#500=CARTESIAN_POINT('',(0.060342893218811,0.062357106781188,-0.0867995404955798));
#501=CARTESIAN_POINT('',(0.060342893218811,0.062357106781188,-0.0889995404955798));
#502=CARTESIAN_POINT('',(0.0592391966094045,0.0634608033905944,-0.0889995404955798));
#503=CARTESIAN_POINT('',(0.055721286437625,0.065564500000001,-0.0867995404955798));
#504=CARTESIAN_POINT('',(0.0557212864376249,0.0665645000000009,-0.0867995404955798));
#505=CARTESIAN_POINT('',(0.0557212864376249,0.0665645000000009,-0.0871995404955798));
#506=CARTESIAN_POINT('',(0.0557212864376249,0.0665645000000009,-0.0889995404955798));
#507=CARTESIAN_POINT('',(0.055721286437625,0.065564500000001,-0.0871995404955798));
#508=CARTESIAN_POINT('',(0.055721286437625,0.065564500000001,-0.0889995404955798));
#509=CARTESIAN_POINT('',(0.0501999999999977,0.0665645000000009,-0.0867995404955798));
#510=CARTESIAN_POINT('',(0.0446787135623705,0.0665645000000009,-0.0867995404955798));
#511=CARTESIAN_POINT('',(0.0446787135623705,0.0665645000000009,-0.0871995404955798));
#512=CARTESIAN_POINT('',(0.0446787135623705,0.0665645000000009,-0.0889995404955798));
#513=CARTESIAN_POINT('',(0.0501999999999977,0.0665645000000009,-0.0871995404955798));
#514=CARTESIAN_POINT('',(0.0501999999999977,0.0665645000000009,-0.0889995404955798));
#515=CARTESIAN_POINT('',(0.0446787135623705,0.0655645000000009,-0.0867995404955798));
#516=CARTESIAN_POINT('',(0.0446787135623705,0.0655645000000009,-0.0871995404955798));
#517=CARTESIAN_POINT('',(0.0446787135623705,0.0655645000000009,-0.0889995404955798));
#518=CARTESIAN_POINT('',(-4.76922404346603E-9,0.0643646480615591,-0.0867995404955798));
#519=CARTESIAN_POINT('',(0.040764213562371,0.0616500000000014,-0.0867995404955798));
#520=CARTESIAN_POINT('',(0.0403399494936591,0.0620742640687133,-0.0867995404955798));
#521=CARTESIAN_POINT('',(0.040764213562371,0.0610500000000014,-0.0867995404955798));
#522=CARTESIAN_POINT('',(0.0596357864376245,0.0610500000000014,-0.0867995404955798));
#523=CARTESIAN_POINT('',(0.0596357864376245,0.0610500000000014,-0.0867995404955798));
#524=CARTESIAN_POINT('',(0.0596357864376245,0.0616500000000014,-0.0867995404955798));
#525=CARTESIAN_POINT('',(0.0600600505063364,0.0620742640687133,-0.0867995404955798));
#526=CARTESIAN_POINT('',(0.0561455505063368,0.0659887640687128,-0.0867995404955798));
#527=CARTESIAN_POINT('',(0.0561455505063369,0.0659887640687128,-0.0867995404955798));
#528=CARTESIAN_POINT('',(0.055721286437625,0.065564500000001,-0.0867995404955798));
#529=CARTESIAN_POINT('',(0.0557212864376249,0.0661645000000009,-0.0867995404955798));
#530=CARTESIAN_POINT('',(-4.76922404346603E-9,0.0661645000000009,-0.0867995404955798));
#531=CARTESIAN_POINT('',(0.0446787135623705,0.0661645000000009,-0.0867995404955798));
#532=CARTESIAN_POINT('',(0.0446787135623705,0.0655645000000009,-0.0867995404955798));
#533=CARTESIAN_POINT('',(0.0442544494936586,0.0659887640687128,-0.0867995404955798));
#534=CARTESIAN_POINT('',(0.0403399494936591,0.0620742640687133,-0.0867995404955798));
#535=CARTESIAN_POINT('',(0.05035,0.0639000000000009,-0.0867995404955798));
#536=CARTESIAN_POINT('',(0.05035,0.0654500000000009,-0.0867995404955798));
#537=CARTESIAN_POINT('',(-4.76922404346603E-9,0.0643646480615591,-0.0889995404955798));
#538=CARTESIAN_POINT('',(0.05035,0.0639000000000009,-0.0889995404955798));
#539=CARTESIAN_POINT('',(0.05035,0.0615500000000009,-0.0889995404955798));
#540=CARTESIAN_POINT('',(0.040764213562371,0.0616500000000014,-0.0889995404955798));
#541=CARTESIAN_POINT('',(0.0596357864376245,0.0616500000000014,-0.0889995404955798));
#542=CARTESIAN_POINT('',(0.05035,0.0639000000000009,-0.0867995404955798));
#543=CARTESIAN_POINT('',(0.05035,0.0639000000000009,-0.0881995404955798));
#544=CARTESIAN_POINT('',(0.0519,0.0639000000000009,-0.0881995404955798));
#545=CARTESIAN_POINT('',(0.040764213562371,0.0616500000000014,-0.0867995404955798));
#546=CARTESIAN_POINT('',(0.040764213562371,0.0616500000000014,-0.0871995404955798));
#547=CARTESIAN_POINT('',(0.0596357864376245,0.0616500000000014,-0.0867995404955798));
#548=CARTESIAN_POINT('',(0.0596357864376245,0.0616500000000014,-0.0871995404955798));
#549=CARTESIAN_POINT('',(0.0501999999999977,0.0665645000000009,-0.0871995404955798));
#550=CARTESIAN_POINT('',(0.0557212864376249,0.0665645000000009,-0.0871995404955798));
#551=CARTESIAN_POINT('',(0.0446787135623705,0.0661645000000009,-0.0867995404955798));
#552=CARTESIAN_POINT('',(0.0446787135623705,0.0655645000000009,-0.0867995404955798));
#553=CARTESIAN_POINT('',(0.0442544494936586,0.0659887640687129,-0.0867995404955798));
#554=CARTESIAN_POINT('',(0.055721286437625,0.065564500000001,-0.0867995404955798));
#555=CARTESIAN_POINT('',(0.0564283932188115,0.0662716067811875,-0.0871995404955798));
#556=CARTESIAN_POINT('',(0.0213151643586409,0.0430494789336947,-0.0867995404955798));
#557=CARTESIAN_POINT('',(0.0403399494936591,0.0620742640687133,-0.0867995404955798));
#558=CARTESIAN_POINT('',(0.0288848308721327,0.0932494837029164,-0.0867995404955797));
#559=CARTESIAN_POINT('',(0.060342893218811,0.062357106781188,-0.0871995404955798));
#560=CARTESIAN_POINT('',(0.040764213562371,0.0616500000000014,-0.0867995404955798));
#561=CARTESIAN_POINT('',(0.040764213562371,0.0610500000000014,-0.0867995404955798));
#562=CARTESIAN_POINT('',(0.0596357864376245,0.0616500000000014,-0.0867995404955798));
#563=CARTESIAN_POINT('',(0.0596357864376245,0.0606500000000014,-0.0871995404955798));
#564=CARTESIAN_POINT('',(-4.76922403085E-9,0.0610500000000012,-0.0867995404955798));
#565=CARTESIAN_POINT('',(0.05035,0.0639000000000009,-0.0881995404955798));
#566=MECHANICAL_DESIGN_GEOMETRIC_PRESENTATION_REPRESENTATION('',(#328),
#567);
#567=(
GEOMETRIC_REPRESENTATION_CONTEXT(3)
GLOBAL_UNCERTAINTY_ASSIGNED_CONTEXT((#568))
GLOBAL_UNIT_ASSIGNED_CONTEXT((#571,#570,#569))
REPRESENTATION_CONTEXT('Micron_tabless_sheet_alignment_post',
'TOP_LEVEL_ASSEMBLY_PART')
);
#568=UNCERTAINTY_MEASURE_WITH_UNIT(LENGTH_MEASURE(1.E-8),#571,
'DISTANCE_ACCURACY_VALUE','Maximum Tolerance applied to model');
#569=(
NAMED_UNIT(*)
SI_UNIT($,.STERADIAN.)
SOLID_ANGLE_UNIT()
);
#570=(
NAMED_UNIT(*)
PLANE_ANGLE_UNIT()
SI_UNIT($,.RADIAN.)
);
#571=(
LENGTH_UNIT()
NAMED_UNIT(*)
SI_UNIT($,.METRE.)
);
#572=PRODUCT_DEFINITION_SHAPE('','',#573);
#573=PRODUCT_DEFINITION('','',#575,#574);
#574=PRODUCT_DEFINITION_CONTEXT('',#581,'design');
#575=PRODUCT_DEFINITION_FORMATION_WITH_SPECIFIED_SOURCE('','',#577,
 .NOT_KNOWN.);
#576=PRODUCT_RELATED_PRODUCT_CATEGORY('','',(#577));
#577=PRODUCT('Micron_tabless_sheet_alignment_post',
'Micron_tabless_sheet_alignment_post',
'Micron_tabless_sheet_alignment_post',(#579));
#578=PRODUCT_CATEGORY('','');
#579=PRODUCT_CONTEXT('',#581,'mechanical');
#580=APPLICATION_PROTOCOL_DEFINITION('international standard',
'ap242_managed_model_based_3d_engineering',2020,#581);
#581=APPLICATION_CONTEXT('managed model based 3d engineering');
ENDSEC;
END-ISO-10303-21;
